<?xml version='1.0' encoding='utf-8'?>
<!DOCTYPE svg PUBLIC '-//W3C//DTD SVG 1.1//EN' 'http://www.w3.org/Graphics/SVG/1.1/DTD/svg11.dtd'>
<svg version="1.1" xmlns="http://www.w3.org/2000/svg" viewBox="0 0 512 512" xmlns:xlink="http://www.w3.org/1999/xlink" enable-background="new 0 0 512 512">
  <g>
    <path d="m453.5,460.2h-19.7c-7.4-72.8-52.1-165.1-115.4-204.2 63.3-39.1 108-131.3 115.4-204.2h19.7c11.3,0 20.4-9.1 20.4-20.4 0-11.3-9.1-20.4-20.4-20.4h-395c-11.3,0-20.4,9.1-20.4,20.4 0,11.3 9.1,20.4 20.4,20.4h19.7c7.4,72.8 52.1,165.1 115.4,204.2-63.3,39.1-108,131.4-115.4,204.2h-19.7c-11.3,0-20.4,9.1-20.4,20.4 0,11.3 9.1,20.4 20.4,20.4h394.9c11.3,0 20.4-9.1 20.4-20.4 0.1-11.3-9.1-20.4-20.3-20.4zm-334.1-408.4h273.2c-9.6,76.5-69.4,182.2-136.6,182.2-67.2,0-127-105.7-136.6-182.2zm136.6,226.2c67.2,0 127,105.7 136.6,182.2h-273.2c9.6-76.5 69.4-182.2 136.6-182.2z"/>
  </g>
</svg>
